<svg width="56" height="56" viewBox="0 0 56 56" fill="none" xmlns="http://www.w3.org/2000/svg">
<path d="M32 1.33333L33.3229 1.16795C33.2397 0.50072 32.6725 0 32 0V1.33333ZM24 1.33333V0C23.3275 0 22.7603 0.50072 22.6771 1.16795L24 1.33333ZM32.7325 7.19344L31.4096 7.3588C31.4792 7.91597 31.8904 8.36979 32.4379 8.49384L32.7325 7.19344ZM39.3645 9.94235L38.6533 11.0701C39.1283 11.3697 39.7397 11.3395 40.1832 10.9948L39.3645 9.94235ZM44.0277 6.31536L44.9707 5.37256C44.4952 4.89707 43.74 4.85005 43.2091 5.26291L44.0277 6.31536ZM49.6845 11.9722L50.7371 12.7908C51.1499 12.26 51.1029 11.5049 50.6275 11.0294L49.6845 11.9722ZM46.0576 16.6355L45.0051 15.8169C44.6605 16.2601 44.6304 16.8718 44.9299 17.3467L46.0576 16.6355ZM48.8067 23.2675L47.5061 23.5621C47.6301 24.1096 48.084 24.5208 48.6411 24.5904L48.8067 23.2675ZM54.6667 24H56C56 23.3275 55.4992 22.7603 54.832 22.6771L54.6667 24ZM54.6667 32L54.832 33.3229C55.4992 33.2397 56 32.6725 56 32H54.6667ZM48.8067 32.7325L48.6411 31.4096C48.084 31.4792 47.6301 31.8904 47.5061 32.4379L48.8067 32.7325ZM46.0576 39.3645L44.9299 38.6533C44.6304 39.1283 44.6605 39.74 45.0051 40.1832L46.0576 39.3645ZM49.6845 44.0277L50.6275 44.9707C51.1029 44.4952 51.1499 43.74 50.7371 43.2091L49.6845 44.0277ZM44.0277 49.6845L43.2091 50.7371C43.74 51.1499 44.4952 51.1029 44.9707 50.6275L44.0277 49.6845ZM39.3645 46.0576L40.1832 45.0051C39.7397 44.6605 39.1283 44.6304 38.6533 44.9299L39.3645 46.0576ZM32.7325 48.8067L32.4379 47.5061C31.8904 47.6301 31.4792 48.084 31.4096 48.6411L32.7325 48.8067ZM32 54.6667V56C32.6725 56 33.2397 55.4992 33.3229 54.832L32 54.6667ZM24 54.6667L22.6771 54.832C22.7603 55.4992 23.3275 56 24 56V54.6667ZM23.2675 48.8067L24.5904 48.6411C24.5208 48.084 24.1096 47.6301 23.5621 47.5061L23.2675 48.8067ZM16.6355 46.0576L17.3468 44.9299C16.8718 44.6304 16.2602 44.6605 15.8169 45.0051L16.6355 46.0576ZM11.9722 49.6845L11.0294 50.6275C11.5049 51.1029 12.2601 51.1499 12.7908 50.7371L11.9722 49.6845ZM6.31539 44.0277L5.26293 43.2091C4.85008 43.74 4.89709 44.4952 5.37259 44.9707L6.31539 44.0277ZM9.94237 39.3645L10.9949 40.1832C11.3396 39.74 11.3697 39.1283 11.0702 38.6533L9.94237 39.3645ZM7.19344 32.7325L8.49384 32.4379C8.36979 31.8904 7.91597 31.4792 7.3588 31.4096L7.19344 32.7325ZM1.33333 32H0C0 32.6725 0.50072 33.2397 1.16795 33.3229L1.33333 32ZM1.33333 24L1.16795 22.6771C0.50072 22.7603 0 23.3275 0 24H1.33333ZM7.19344 23.2675L7.3588 24.5904C7.91597 24.5208 8.36979 24.1096 8.49384 23.5621L7.19344 23.2675ZM9.94237 16.6355L11.0702 17.3467C11.3697 16.8718 11.3396 16.2601 10.9949 15.8169L9.94237 16.6355ZM6.31539 11.9722L5.37259 11.0294C4.89709 11.5049 4.85008 12.26 5.26291 12.7908L6.31539 11.9722ZM11.9722 6.31539L12.7908 5.26291C12.2601 4.85008 11.5049 4.89709 11.0294 5.37256L11.9722 6.31539ZM16.6355 9.94237L15.8169 10.9948C16.2601 11.3395 16.8718 11.3697 17.3468 11.0701L16.6355 9.94237ZM23.2675 7.19344L23.5621 8.49384C24.1096 8.36979 24.5208 7.91597 24.5904 7.3588L23.2675 7.19344ZM32 0H24V2.66667H32V0ZM34.0555 7.02805L33.3229 1.16795L30.6771 1.49872L31.4096 7.3588L34.0555 7.02805ZM40.0757 8.81459C37.9411 7.46824 35.5651 6.46787 33.0269 5.89304L32.4379 8.49384C34.6747 9.00045 36.7696 9.88221 38.6533 11.0701L40.0757 8.81459ZM40.1832 10.9948L44.8464 7.36784L43.2091 5.26291L38.5459 8.88989L40.1832 10.9948ZM43.0851 7.25819L48.7419 12.915L50.6275 11.0294L44.9707 5.37256L43.0851 7.25819ZM48.6323 11.1536L45.0051 15.8169L47.1101 17.4541L50.7371 12.7908L48.6323 11.1536ZM50.1069 22.9731C49.5323 20.435 48.5317 18.059 47.1853 15.9242L44.9299 17.3467C46.1179 19.2303 46.9995 21.3252 47.5061 23.5621L50.1069 22.9731ZM54.832 22.6771L48.972 21.9445L48.6411 24.5904L54.5013 25.3229L54.832 22.6771ZM56 32V24H53.3333V32H56ZM48.972 34.0555L54.832 33.3229L54.5013 30.6771L48.6411 31.4096L48.972 34.0555ZM47.1853 40.0757C48.5317 37.9411 49.5323 35.5651 50.1069 33.0269L47.5061 32.4379C46.9995 34.6747 46.1179 36.7696 44.9299 38.6533L47.1853 40.0757ZM50.7371 43.2091L47.1101 38.5459L45.0051 40.1832L48.6323 44.8464L50.7371 43.2091ZM44.9707 50.6275L50.6275 44.9707L48.7419 43.0851L43.0851 48.7419L44.9707 50.6275ZM38.5459 47.1101L43.2091 50.7371L44.8464 48.6323L40.1832 45.0051L38.5459 47.1101ZM33.0269 50.1069C35.5651 49.5323 37.9411 48.5317 40.0757 47.1853L38.6533 44.9299C36.7696 46.1179 34.6747 46.9995 32.4379 47.5061L33.0269 50.1069ZM33.3229 54.832L34.0555 48.972L31.4096 48.6411L30.6771 54.5013L33.3229 54.832ZM24 56H32V53.3333H24V56ZM21.9445 48.972L22.6771 54.832L25.3229 54.5013L24.5904 48.6411L21.9445 48.972ZM15.9243 47.1853C18.059 48.5317 20.435 49.5323 22.9731 50.1069L23.5621 47.5061C21.3252 46.9995 19.2304 46.1179 17.3468 44.9299L15.9243 47.1853ZM12.7908 50.7371L17.4541 47.1101L15.8169 45.0051L11.1537 48.6323L12.7908 50.7371ZM5.37259 44.9707L11.0294 50.6275L12.9151 48.7419L7.25821 43.0851L5.37259 44.9707ZM8.88992 38.5459L5.26293 43.2091L7.36787 44.8464L10.9949 40.1832L8.88992 38.5459ZM5.89304 33.0269C6.46787 35.5651 7.46824 37.9411 8.81459 40.0757L11.0702 38.6533C9.88224 36.7696 9.00045 34.6747 8.49384 32.4379L5.89304 33.0269ZM1.16795 33.3229L7.02805 34.0555L7.3588 31.4096L1.49872 30.6771L1.16795 33.3229ZM0 24V32H2.66667V24H0ZM7.02805 21.9445L1.16795 22.6771L1.49872 25.3229L7.3588 24.5904L7.02805 21.9445ZM8.81459 15.9242C7.46824 18.059 6.46787 20.435 5.89304 22.9731L8.49384 23.5621C9.00045 21.3252 9.88221 19.2303 11.0702 17.3467L8.81459 15.9242ZM5.26291 12.7908L8.88989 17.4541L10.9949 15.8169L7.36787 11.1537L5.26291 12.7908ZM11.0294 5.37256L5.37259 11.0294L7.25819 12.915L12.915 7.25819L11.0294 5.37256ZM17.4541 8.88989L12.7908 5.26291L11.1537 7.36784L15.8169 10.9948L17.4541 8.88989ZM22.9731 5.89304C20.435 6.46787 18.059 7.46824 15.9243 8.81459L17.3468 11.0701C19.2304 9.88221 21.3252 9.00045 23.5621 8.49384L22.9731 5.89304ZM22.6771 1.16795L21.9445 7.02805L24.5904 7.3588L25.3229 1.49872L22.6771 1.16795Z" fill="white"/>
<path d="M28 38.6667C33.891 38.6667 38.6666 33.891 38.6666 28C38.6666 22.109 33.891 17.3333 28 17.3333C22.1089 17.3333 17.3333 22.109 17.3333 28C17.3333 33.891 22.1089 38.6667 28 38.6667Z" stroke="white" stroke-width="2.66667" stroke-linejoin="round"/>
</svg>
